<svg fill="none" height="200" viewBox="0 0 200 200" width="200" xmlns="http://www.w3.org/2000/svg"><g fill="#01b9d8"><path d="m0 1.99976c0-1.104558.895424-2.00000414 1.99998-2.00000414 1.10457 0 1.99999.89544614 1.99999 2.00000414 0 1.10456-.89542 2.00001-1.99999 2.00001-1.104556 0-1.99998-.89545-1.99998-2.00001z"></path><path d="m28 1.99976c0-1.104566.8954-2.00000414 2-2.00000414s2 .89543814 2 2.00000414c0 1.10457-.8954 2.00001-2 2.00001s-2-.89544-2-2.00001z"></path><path d="m56 1.99976c0-1.104566.8954-2.00000414 2-2.00000414s2 .89543814 2 2.00000414c0 1.10457-.8954 2.00001-2 2.00001s-2-.89544-2-2.00001z"></path><path d="m84 1.99976c0-1.104566.8954-2.00000414 2-2.00000414s2 .89543814 2 2.00000414c0 1.10457-.8954 2.00001-2 2.00001s-2-.89544-2-2.00001z"></path><path d="m112 1.99976c0-1.104549.895-2.00000414 2-2.00000414s2 .89545514 2 2.00000414c0 1.10456-.895 2.00001-2 2.00001s-2-.89545-2-2.00001z"></path><path d="m140 1.99976c0-1.104566.895-2.00000414 2-2.00000414s2 .89543814 2 2.00000414c0 1.10457-.895 2.00001-2 2.00001s-2-.89544-2-2.00001z"></path><path d="m168 1.99976c0-1.10457.895-2.00000414 2-2.00000414s2 .89543414 2 2.00000414c0 1.10458-.895 2.00001-2 2.00001s-2-.89543-2-2.00001z"></path><path d="m196 1.99976c0-1.104558.895-2.00000414 2-2.00000414s2 .89544614 2 2.00000414c0 1.10456-.895 2.00001-2 2.00001s-2-.89545-2-2.00001z"></path><path d="m0 29.9996c0-1.1045.895424-2 1.99998-2 1.10457 0 1.99999.8955 1.99999 2 0 1.1046-.89542 2-1.99999 2-1.104556 0-1.99998-.8954-1.99998-2z"></path><path d="m28 29.9996c0-1.1045.8954-2 2-2s2 .8955 2 2c0 1.1046-.8954 2-2 2s-2-.8954-2-2z"></path><path d="m56 29.9996c0-1.1045.8955-2 2-2 1.1046 0 2 .8955 2 2 0 1.1046-.8954 2-2 2-1.1045 0-2-.8954-2-2z"></path><path d="m84 29.9996c0-1.1045.8954-2 2-2s2 .8955 2 2c0 1.1046-.8954 2-2 2s-2-.8954-2-2z"></path><path d="m112 29.9996c0-1.1045.895-2 2-2s2 .8955 2 2c0 1.1046-.895 2-2 2s-2-.8954-2-2z"></path><path d="m140 29.9996c0-1.1045.895-2 2-2 1.104 0 2 .8955 2 2 0 1.1046-.896 2-2 2-1.105 0-2-.8954-2-2z"></path><path d="m168 29.9996c0-1.1045.895-2 2-2s2 .8955 2 2c0 1.1046-.895 2-2 2s-2-.8954-2-2z"></path><path d="m196 29.9996c0-1.1045.895-2 2-2s2 .8955 2 2c0 1.1046-.895 2-2 2s-2-.8954-2-2z"></path><path d="m0 57.9997c0-1.1045.895424-1.9999 1.99998-1.9999 1.10457 0 1.99999.8954 1.99999 1.9999 0 1.1046-.89542 2-1.99999 2-1.104556 0-1.99998-.8954-1.99998-2z"></path><path d="m28 57.9997c0-1.1045.8954-1.9999 2-1.9999s2 .8954 2 1.9999c0 1.1046-.8954 2-2 2s-2-.8954-2-2z"></path><path d="m56 57.9997c0-1.1045.8954-1.9999 2-1.9999s2 .8954 2 1.9999c0 1.1046-.8954 2-2 2s-2-.8954-2-2z"></path><path d="m84 57.9997c0-1.1045.8954-1.9999 2-1.9999s2 .8954 2 1.9999c0 1.1046-.8954 2-2 2s-2-.8954-2-2z"></path><path d="m112 57.9997c0-1.1045.895-1.9999 2-1.9999s2 .8954 2 1.9999c0 1.1046-.895 2-2 2s-2-.8954-2-2z"></path><path d="m140 57.9997c0-1.1045.895-1.9999 2-1.9999s2 .8954 2 1.9999c0 1.1046-.895 2-2 2s-2-.8954-2-2z"></path><path d="m168 57.9997c0-1.1045.895-1.9999 2-1.9999s2 .8954 2 1.9999c0 1.1046-.895 2-2 2s-2-.8954-2-2z"></path><path d="m196 57.9997c0-1.1045.895-1.9999 2-1.9999s2 .8954 2 1.9999c0 1.1046-.895 2-2 2s-2-.8954-2-2z"></path><path d="m0 85.9996c0-1.1045.895432-2 1.99998-2 1.10456 0 1.99999.8955 1.99999 2 0 1.1046-.89543 2-1.99999 2-1.104548 0-1.99998-.8954-1.99998-2z"></path><path d="m28 85.9996c0-1.1045.8954-2 2-2s2 .8955 2 2c0 1.1046-.8954 2-2 2s-2-.8954-2-2z"></path><path d="m56 85.9996c0-1.1045.8955-2 2-2 1.1046 0 2 .8955 2 2 0 1.1046-.8954 2-2 2-1.1045 0-2-.8954-2-2z"></path><path d="m84 85.9996c0-1.1045.8954-2 2-2s2 .8955 2 2c0 1.1046-.8954 2-2 2s-2-.8954-2-2z"></path><path d="m112 85.9996c0-1.1045.895-2 2-2s2 .8955 2 2c0 1.1046-.895 2-2 2s-2-.8954-2-2z"></path><path d="m140 85.9996c0-1.1045.895-2 2-2 1.104 0 2 .8955 2 2 0 1.1046-.896 2-2 2-1.105 0-2-.8954-2-2z"></path><path d="m168 85.9996c0-1.1045.895-2 2-2s2 .8955 2 2c0 1.1046-.895 2-2 2s-2-.8954-2-2z"></path><path d="m196 85.9996c0-1.1045.895-2 2-2s2 .8955 2 2c0 1.1046-.895 2-2 2s-2-.8954-2-2z"></path><path d="m0 114c0-1.105.895424-2 1.99998-2 1.10457 0 1.99999.895 1.99999 2 0 1.104-.89542 2-1.99999 2-1.104556 0-1.99998-.896-1.99998-2z"></path><path d="m28 114c0-1.105.8954-2 2-2s2 .895 2 2c0 1.104-.8954 2-2 2s-2-.896-2-2z"></path><path d="m56 114c0-1.105.8954-2 2-2s2 .895 2 2c0 1.104-.8954 2-2 2s-2-.896-2-2z"></path><path d="m84 114c0-1.105.8954-2 2-2s2 .895 2 2c0 1.104-.8954 2-2 2s-2-.896-2-2z"></path><path d="m112 114c0-1.105.895-2 2-2s2 .895 2 2c0 1.104-.895 2-2 2s-2-.896-2-2z"></path><path d="m140 114c0-1.105.895-2 2-2 1.104 0 2 .895 2 2 0 1.104-.896 2-2 2-1.105 0-2-.896-2-2z"></path><path d="m168 114c0-1.105.895-2 2-2s2 .895 2 2c0 1.104-.895 2-2 2s-2-.896-2-2z"></path><path d="m196 114c0-1.105.895-2 2-2s2 .895 2 2c0 1.104-.895 2-2 2s-2-.896-2-2z"></path><path d="m0 142c0-1.105.895432-2 1.99998-2 1.10456 0 1.99999.895 1.99999 2 0 1.104-.89543 2-1.99999 2-1.104548 0-1.99998-.896-1.99998-2z"></path><path d="m28 142c0-1.105.8954-2 2-2s2 .895 2 2c0 1.104-.8954 2-2 2s-2-.896-2-2z"></path><path d="m56 142c0-1.105.8955-2 2-2 1.1046 0 2 .895 2 2 0 1.104-.8954 2-2 2-1.1045 0-2-.896-2-2z"></path><path d="m84 142c0-1.105.8954-2 2-2s2 .895 2 2c0 1.104-.8954 2-2 2s-2-.896-2-2z"></path><path d="m112 142c0-1.105.895-2 2-2s2 .895 2 2c0 1.104-.895 2-2 2s-2-.896-2-2z"></path><path d="m140 142c0-1.105.895-2 2-2 1.104 0 2 .895 2 2 0 1.104-.896 2-2 2-1.105 0-2-.896-2-2z"></path><path d="m168 142c0-1.105.895-2 2-2s2 .895 2 2c0 1.104-.895 2-2 2s-2-.896-2-2z"></path><path d="m196 142c0-1.105.895-2 2-2s2 .895 2 2c0 1.104-.895 2-2 2s-2-.896-2-2z"></path><path d="m0 170c0-1.105.895424-2 1.99998-2 1.10457 0 1.99999.895 1.99999 2s-.89542 2-1.99999 2c-1.104556 0-1.99998-.895-1.99998-2z"></path><path d="m28 170c0-1.105.8954-2 2-2s2 .895 2 2-.8954 2-2 2-2-.895-2-2z"></path><path d="m56 170c0-1.105.8955-2 2-2 1.1046 0 2 .895 2 2s-.8954 2-2 2c-1.1045 0-2-.895-2-2z"></path><path d="m84 170c0-1.105.8954-2 2-2s2 .895 2 2-.8954 2-2 2-2-.895-2-2z"></path><path d="m112 170c0-1.105.895-2 2-2s2 .895 2 2-.895 2-2 2-2-.895-2-2z"></path><path d="m140 170c0-1.105.895-2 2-2 1.104 0 2 .895 2 2s-.896 2-2 2c-1.105 0-2-.895-2-2z"></path><path d="m168 170c0-1.105.895-2 2-2s2 .895 2 2-.895 2-2 2-2-.895-2-2z"></path><path d="m196 170c0-1.105.895-2 2-2s2 .895 2 2-.895 2-2 2-2-.895-2-2z"></path><path d="m0 198c0-1.104.895424-2 1.99998-2 1.10457 0 1.99999.896 1.99999 2 0 1.105-.89542 2-1.99999 2-1.104556 0-1.99998-.895-1.99998-2z"></path><path d="m28 198c0-1.104.8954-2 2-2s2 .896 2 2c0 1.105-.8954 2-2 2s-2-.895-2-2z"></path><path d="m56 198c0-1.104.8955-2 2-2 1.1046 0 2 .896 2 2 0 1.105-.8954 2-2 2-1.1045 0-2-.895-2-2z"></path><path d="m84 198c0-1.104.8954-2 2-2s2 .896 2 2c0 1.105-.8954 2-2 2s-2-.895-2-2z"></path><path d="m112 198c0-1.104.895-2 2-2s2 .896 2 2c0 1.105-.895 2-2 2s-2-.895-2-2z"></path><path d="m140 198c0-1.104.895-2 2-2 1.104 0 2 .896 2 2 0 1.105-.896 2-2 2-1.105 0-2-.895-2-2z"></path><path d="m168 198c0-1.104.895-2 2-2s2 .896 2 2c0 1.105-.895 2-2 2s-2-.895-2-2z"></path><path d="m196 198c0-1.104.895-2 2-2s2 .896 2 2c0 1.105-.895 2-2 2s-2-.895-2-2z"></path></g></svg>