<svg fill="none" height="179" viewBox="0 0 171 179" width="171" xmlns="http://www.w3.org/2000/svg" xmlns:xlink="http://www.w3.org/1999/xlink"><clipPath id="a"><path d="m0 .168701h171v178h-171z"></path></clipPath><g clip-path="url(#a)" fill="#fff" opacity=".23"><path d="m50.0081 57.305c-3.8548 3.8507-6.8761 8.3605-9.0292 13.2867-.1737.4163-.4515.8326-.6251 1.2836-.1737.4162-.2779.8672-.4168 1.2835-.5209 1.4224-1.0418 2.81-1.3891 4.267-.1042.4163-.1389.8326-.1736 1.2142 0 .1041-.0348.2082-.0348.2776v.6591c0 .2775 0 .555.0348.8326.0347.2775.1389.5203.2083.7632.0695.2081.1042.451.1737.6591.1389.3469.3125.6938.4862 1.0407.0347.1041.0694.1735.1389.2776.9724 1.6304 2.5351 2.914 4.5146 3.4691h.0347v.3469c0 1.1448 0 2.2549.0695 3.3997v.1735c.0694 1.0754.2083 2.1161.382 3.1915.0694.347.1389.6939.1736 1.0408.1389.7979.3126 1.5958.5209 2.359.1042.3469.1737.7285.2779 1.0754.2431.8673.5209 1.6999.8334 2.5322.1042.243.1737.486.2431.729.4168 1.075.8682 2.081 1.3891 3.122.139.243.2779.486.382.728.4168.764.8335 1.527 1.3197 2.29.2084.312.4167.625.6251.937.4515.694.9377 1.353 1.4239 2.012.243.312.4514.59.6945.902.6946.867 1.4586 1.7 2.2573 2.498 0 0 .0695.069.1042.104.1389.138.3126.277.4515.416.764.763 1.5627 1.492 2.3615 2.151.2431.173.4861.347.6945.52.764.59 1.528 1.18 2.2921 1.7v.278c0 .138-.0348.312-.0348.451 0 .242 0 .451.0695.659 0 .138.0694.277.1042.416.0694.243.2083.451.3472.659.0695.104.1042.208.2084.312 0 0 0 .07.0695.104.2083.243.4862.486.8334.66 1.5975.867 3.2297 1.561 4.8619 2.185 4.4105 1.665 9.064 2.498 13.6828 2.498 7.5012 0 14.9677-2.151 21.3574-6.279.104-.07.174-.104.278-.174.208-.138.382-.312.59-.416 1.91-1.318 3.751-2.81 5.453-4.475.937-.937 1.806-1.908 2.639-2.914.451.034.903.139 1.389.139 0 0 .313-.07.486-.07 2.535-.173 4.932-1.526 6.217-3.92 9.168-16.7904 6.112-37.9867-7.432-51.5509-1.771-1.7693-3.647-3.2957-5.626-4.6833-16.982-12.0725-40.7358-10.5808-55.9814 4.6139zm50.8069 10.8236c8.786 8.8116 10.766 22.5839 4.827 33.4774-.312.555-.521 1.144-.66 1.734-.034.139-.069.278-.069.416-.104.486-.139 1.006-.139 1.492v.312c.069 1.249.417 2.498 1.076 3.574-.59.728-1.215 1.422-1.91 2.116 0 0-.069.069-.104.104-4.6185 4.579-10.4528 7.528-16.5649 8.777-7.3971 1.491-15.2803.485-22.1911-3.261-.3473-.174-.7293-.278-1.0766-.313-.0694 0-.1389 0-.2431 0-.3125 0-.6251 0-.9029.07-.0695 0-.1389 0-.2084.069-.3472.104-.6598.243-.9376.486 0 0-.0347 0-.0695.035-1.9795-1.284-3.82-2.776-5.5564-4.51-.7988-.798-1.5281-1.631-2.2573-2.498-.1737-.243-.3473-.451-.5557-.694-.5209-.659-1.0071-1.318-1.4586-2.012-.1736-.278-.3472-.52-.5209-.798-.4862-.763-.9376-1.526-1.3544-2.324-.1041-.174-.1736-.347-.2778-.521-.5209-1.006-.9724-2.046-1.3891-3.087v-.069c-.4167-1.0065-.764-2.0472-1.0418-3.0879-.0348-.1735-.1042-.347-.1389-.5204-.2431-.9367-.4862-1.908-.6251-2.8794 0-.1387-.0348-.2775-.0695-.3816-.382-2.2549-.5556-4.5792-.4862-6.8688h.2431c.7293 0 1.4586-.1388 2.1184-.3469.0347 0 .1042 0 .1389-.0347.2431-.0694.4862-.2082.7293-.3122.1736-.0694.3473-.1388.5209-.2429.2084-.104.4168-.2428.5904-.3816.1736-.1387.3473-.2428.5209-.3816.1736-.1387.3473-.2775.4862-.451.1736-.1734.3473-.3469.4862-.5203.1389-.1735.2778-.3122.4167-.4857.1389-.2081.2778-.451.4168-.6591.1041-.1735.2083-.3469.2778-.5204.1389-.3122.2431-.6244.3473-.9367.0347-.1387.1041-.2428.1389-.3816.5556-2.2549 1.4585-4.4404 2.5698-6.4525 1.3197-2.3937 2.9172-4.6486 4.8967-6.5913.3472-.3469.7292-.6591 1.0765-.9714 2.5004-2.2549 5.3134-4.0241 8.3-5.2383 9.4112-3.7814 20.4894-2.3243 28.6157 4.3711.6946.5897 1.3893 1.1794 2.0493 1.8386z"></path><path d="m144.607 24.3831c-5.036-5.0649-10.696-9.436-16.704-13.1133-7.745-4.75265-16.183-8.36053-25.039-10.615451-3.1603-.797895-6.3553-.5550571-9.2377.450981-.0694 0-.1042.06939-.1736.06939-.8682.34691-1.7364.72851-2.5351 1.21418-.2779.17346-.521.38161-.7988.55506-.5556.3816-1.1113.76321-1.6322 1.1795-.382.34691-.7293.7632-1.0766 1.14481-.3125.34691-.6598.65913-.9723 1.04073-.4168.52037-.7293 1.1448-1.0766 1.69986-.1736.31222-.382.55506-.5556.86728-.3473.69382-.5904 1.42236-.8335 2.15086-.0695.2428-.2084.451-.2778.6938-20.7326-.6938-41.5346 6.9729-56.8148 22.2023-3.7506 3.7467-7.0845 7.8055-9.9322 12.1419-.0694 0-.1389 0-.2083 0-.5904-.1388-1.2155-.2081-1.8059-.1388-.0347 0-.0695 0-.1042 0-.6251.0694-1.2155.2082-1.8058.451-.1042.0347-.2084.0694-.3126.1388-.5556.2428-1.0765.5897-1.528.9713-.0695.0694-.1736.1388-.2431.2429-.4515.451-.8682.9366-1.21548 1.5264-8.47359 15.6457-11.32128 33.3034-8.890328 50.198 2.430948 16.8944 10.140508 33.0264 22.712008 45.6184 1.91 1.943 3.9243 3.747 6.0079 5.447-.0347.277-.0347.52-.0694.798-.0348.381-.1042.728-.1042 1.11-.0347.624 0 1.214 0 1.839 0 .312 0 .624.0347.936.1042.902.2778 1.804.5209 2.671.0348.139.1042.243.1389.382.2431.763.521 1.492.903 2.22.1389.278.2778.521.4514.798.3126.555.6599 1.11 1.0419 1.631.2083.242.382.52.5903.763.4168.52.903 1.006 1.4239 1.457.2084.208.4167.381.6251.59.764.624 1.5627 1.179 2.4309 1.665 5.3134 2.879 10.8699 5.169 16.5305 6.903 8.6125 2.637 17.5028 3.955 26.3932 3.955 2.9171 0 5.869-.139 8.7861-.416 20.4204-1.978 40.1104-10.754 55.2174-25.81 17.051-16.999 26.497-39.652 26.497-63.7279 0-17.2415-4.792-33.7545-13.787-47.9778-3.577-5.6547-7.744-10.9624-12.606-15.8192zm-22.4 22.3063c5.522 5.5506 9.828 12.0032 12.711 19.0108 2.709 6.5913 4.167 13.703 4.341 21.0228 0 .4856.069.9366.069 1.4223 0 15.6457-6.147 30.3547-17.225 41.4207-6.702 6.696-14.829 11.449-23.5106 14.224-.1736.069-.3473.139-.5209.173-.1389.035-.2778.07-.4167.104-14.7246 4.406-31.012 3.123-45.0073-4.509-.8682-.451-1.7364-.798-2.6394-1.111-.2083-.069-.4167-.138-.6598-.208-.8682-.243-1.7711-.451-2.6393-.52-.0695 0-.1389 0-.2084 0-.8334-.069-1.6669-.069-2.5004 0-.2778 0-.5209.035-.7987.069-.7988.104-1.5628.243-2.3268.451-.2084.07-.4167.139-.6251.208-.6945.209-1.3544.486-1.9795.798-.2778.139-.5556.278-.8334.417-.139.069-.2779.138-.4168.208-1.4933-1.249-2.9171-2.533-4.3062-3.92-6.5983-6.626-11.5991-14.397-14.933-22.792-5.5912-14.0503-6.3899-29.7654-2.0837-44.4397 1.3197-4.5445 3.0908-9.0197 5.4176-13.252.2778-.5551.4514-1.0754.5903-1.6305 0-.1388.0695-.2775.0695-.4163.1042-.555.1389-1.1101.0694-1.6652v-.0693c-.0694-.5204-.2083-1.0408-.4167-1.5611-.0347-.1041-.1042-.2429-.1389-.347-.2431-.5203-.5209-1.006-.8682-1.457 2.6741-4.0588 5.7996-7.9096 9.3765-11.4827.1042-.1041.2431-.2082.382-.3469 14.3426-14.0846 33.6861-21.231 53.0642-20.6759 0 .4509.0695.8672.1042 1.2835.0694.7632.1736 1.5264.3473 2.255.1389.555.2431 1.1101.4167 1.6651.1389.4163.3473.8326.5556 1.2489.2084.451.382.902.6251 1.3183.2084.3816.4862.7632.7293 1.1448.2779.4163.5557.8326.903 1.2142.2778.3469.5556.6591.8682.9713.382.3816.764.7285 1.1807 1.0754.3126.2776.6251.5204.9724.7632.4862.347.9724.6245 1.4933.9367.3473.1735.6598.3816.9724.5551.7292.3469 1.528.6244 2.3267.8325.1389.0347.2778.1041.4515.1735 4.7577 1.2142 9.3419 3.0181 13.6129 5.3424 4.932 2.6712 9.481 6.0363 13.475 10.0604z"></path></g></svg>